<?xml version="1.0" encoding="UTF-8"?><svg id="Calque_4" xmlns="http://www.w3.org/2000/svg" viewBox="0 0 400 400"><defs><style>.cls-1{fill:#fff;}</style></defs><path class="cls-1" d="m361.1,172.8c.56-.98.95-2.05,1.17-3.17l12.5-66.67c1.66-9.2-4.46-18.01-13.67-19.67-9.2-1.66-18.01,4.46-19.67,13.67h0l-6.17,33.33c-40.76-74.44-134.15-101.74-208.59-60.98-30.39,16.64-54.26,43.06-67.75,74.98-3.43,8.51.67,18.2,9.17,21.67,8.5,3.52,18.25-.52,21.77-9.02.02-.05.04-.1.06-.14,18.37-45.14,62.6-74.34,111.33-73.5,42.86-.2,82.54,22.57,104,59.67l-27.5-4.5c-9.2-1.47-17.86,4.8-19.33,14-1.47,9.2,4.8,17.86,14,19.33l70.83,11.83h2.67c1.93.02,3.86-.32,5.67-1,.61-.23,1.17-.57,1.67-1,1.2-.44,2.32-1.06,3.33-1.83l1.33-1.67c.86-.81,1.65-1.7,2.33-2.67.41-.84.69-1.74.83-2.67Z"/><path class="cls-1" d="m331.43,234.46c-8.52-3.49-18.25.59-21.74,9.1-.03.08-.06.15-.09.23-18.49,44.65-62.34,73.51-110.67,72.83-42.86.2-82.54-22.57-104-59.67l27.5,4.5h2.67c9.2.74,17.26-6.13,18-15.33.74-9.2-6.13-17.26-15.33-18l-70.83-11.5c-1.82-.34-3.68-.34-5.5,0h-1.33c-1.89.5-3.68,1.29-5.33,2.33-1.12.87-2.13,1.88-3,3l-1.5,1.67c-.52,1-.91,2.07-1.17,3.17-.58.85-.98,1.82-1.17,2.83l-12.5,66.67c-2.16,8.95,3.34,17.95,12.29,20.12.35.08.7.16,1.05.22h3c8.15.13,15.2-5.65,16.67-13.67l6.17-33.33c40.72,74.46,134.09,101.81,208.55,61.09,30.39-16.62,54.28-43.02,67.78-74.92,3.18-8.51-1.05-18-9.5-21.33Z"/></svg>