<?xml version="1.0" encoding="UTF-8"?><svg id="Dice_Six" xmlns="http://www.w3.org/2000/svg" viewBox="0 0 400 400"><defs><style>.cls-1{fill:#fff;}</style></defs><path class="cls-1" d="m315.5,64.5H84.5c-11.05,0-20,8.95-20,20v231c0,11.05,8.95,20,20,20h231c11.05,0,20-8.95,20-20V84.5c0-11.05-8.95-20-20-20Zm-172.98,114.76c14.26.1,23.79,9.63,24.1,24.1.31,14.25-9.1,24.6-22.98,25.25-13.64.64-25.18-9.04-26.5-22.22-1.47-14.66,10.29-27.23,25.38-27.13Zm2.16,124.18c-11.84,1.22-25.61-10.24-27.25-22.68-1.77-13.4,11.05-28.44,24.94-29.28,12.73-.77,23.67,10.28,24.39,24.63.69,13.89-9.08,25.98-22.08,27.32Zm-.08-146.92c-13.24.6-27.91-13.94-27.48-27.25.4-12.24,13.39-24.99,25.35-24.9,12.76.09,24.12,11.75,24.47,25.1.35,13.69-10.23,26.49-22.35,27.04Zm96.81-31.18c2.18-12.63,16.22-22.98,28.08-20.69,12.17,2.35,22.72,16.91,20.84,28.78-2.21,13.96-18.4,25.52-31.17,22.26-12.56-3.21-20.19-16.24-17.75-30.35Zm26.2,178.04c-12.52,1.35-25.05-9.45-26.44-22.79-1.49-14.3,7.15-26.89,19.84-28.92,13.08-2.09,28.56,10.82,29.53,24.63.85,12.14-10.69,25.77-22.92,27.08Zm23.06-97.64c-1,13.27-12.24,23.21-25.84,22.85-15.35-.4-25.64-12.83-23.52-28.41,1.87-13.7,13.21-22.39,27.17-20.82,13.46,1.51,23.19,13.08,22.19,26.37Z"/></svg>