<?xml version="1.0" encoding="UTF-8"?><svg id="Calque_5" xmlns="http://www.w3.org/2000/svg" viewBox="0 0 400 400"><defs><style>.cls-1{fill:#fff;}</style></defs><path class="cls-1" d="m200,33.33c-92.05,0-166.67,74.62-166.67,166.67s74.62,166.67,166.67,166.67,166.67-74.62,166.67-166.67S292.05,33.33,200,33.33Zm71.67,126.83l-76.17,100c-3.15,4.09-8.01,6.49-13.17,6.5-5.13.03-9.99-2.31-13.17-6.33l-40.67-51.83c-5.66-7.27-4.36-17.76,2.92-23.42,7.27-5.66,17.76-4.36,23.42,2.92l27.17,34.67,63-83.33c5.61-7.36,16.14-8.78,23.5-3.17,7.36,5.61,8.78,16.14,3.17,23.5v.5Z"/></svg>