<?xml version="1.0" encoding="UTF-8"?><svg id="Dice_Three" xmlns="http://www.w3.org/2000/svg" viewBox="0 0 400 400"><defs><style>.cls-1{fill:#fff;}</style></defs><path class="cls-1" d="m315.5,64.5H84.5c-11.05,0-20,8.95-20,20v231c0,11.05,8.95,20,20,20h231c11.05,0,20-8.95,20-20V84.5c0-11.05-8.95-20-20-20Zm-175.68,98.15c-13.91.7-25.65-9.44-26.42-22.83-.76-13.26,9.9-25.32,23.28-26.33,13.68-1.03,24.97,9.07,25.86,23.16.92,14.52-8.49,25.29-22.72,26Zm60.92,61.86c-14.38.43-24.81-9.39-25.23-23.77-.43-14.46,9.32-24.82,23.73-25.24,14.42-.42,24.86,9.39,25.28,23.73.42,14.33-9.46,24.84-23.77,25.27Zm85.75,38.87c-1.04,13.31-13.2,24-26.4,23.22-13.3-.79-23.45-12.61-22.75-26.5.72-14.19,11.57-23.61,26.06-22.64,14.06.94,24.16,12.28,23.09,25.92Z"/></svg>