<?xml version="1.0" encoding="UTF-8"?><svg id="Calque_1" xmlns="http://www.w3.org/2000/svg" viewBox="0 0 400 400"><defs><style>.cls-1{fill:#fff;}</style></defs><path class="cls-1" d="m200,33.33c-92.05,0-166.67,74.62-166.67,166.67s74.62,166.67,166.67,166.67,166.67-74.62,166.67-166.67S292.05,33.33,200,33.33Zm0,300c-73.64,0-133.33-59.7-133.33-133.33S126.36,66.67,200,66.67s133.33,59.7,133.33,133.33-59.7,133.33-133.33,133.33Z"/><path class="cls-1" d="m250,183.33h-33.33v-33.33c0-9.2-7.46-16.67-16.67-16.67s-16.67,7.46-16.67,16.67v33.33h-33.33c-9.2,0-16.67,7.46-16.67,16.67s7.46,16.67,16.67,16.67h33.33v33.33c0,9.2,7.46,16.67,16.67,16.67s16.67-7.46,16.67-16.67v-33.33h33.33c9.2,0,16.67-7.46,16.67-16.67s-7.46-16.67-16.67-16.67Z"/></svg>