<?xml version="1.0" encoding="UTF-8"?><svg id="Dice_Four" xmlns="http://www.w3.org/2000/svg" viewBox="0 0 400 400"><defs><style>.cls-1{fill:#fff;}</style></defs><path class="cls-1" d="m315.5,64.5H84.5c-11.05,0-20,8.95-20,20v231c0,11.05,8.95,20,20,20h231c11.05,0,20-8.95,20-20V84.5c0-11.05-8.95-20-20-20Zm-177.35,222.06c-13.49-.13-24.65-11.4-24.69-24.91-.04-13.79,10.64-24.2,24.87-24.25,14.58-.05,24.42,9.87,24.26,24.45-.15,14.3-10.58,24.85-24.44,24.71Zm-.64-123.99c-14.19-.47-24.55-11.27-24.04-25.05.5-13.55,11.98-24.39,25.51-24.09,13.65.3,23.95,11.43,23.65,25.54-.31,14.51-10.52,24.1-25.12,23.61Zm125.27,123.96c-13.64.7-24.67-9.65-25.33-23.77-.68-14.53,8.86-24.93,23.29-25.4,14.24-.46,25.37,9.59,25.84,23.34.46,13.36-10.39,25.14-23.8,25.83Zm23.83-146.81c-.72,13.5-12.28,23.56-26.33,22.93-14.25-.64-23.7-11.35-22.83-25.87.84-14.08,12.09-24.25,25.76-23.29,13.37.94,24.11,12.98,23.4,26.23Z"/></svg>