<?xml version="1.0" encoding="UTF-8"?><svg id="Calque_2" xmlns="http://www.w3.org/2000/svg" viewBox="0 0 400 400"><defs><style>.cls-1{fill:none;stroke:#fff;stroke-miterlimit:10;stroke-width:10px;}</style></defs><path class="cls-1" d="m200,33.33c-92.05,0-166.67,74.62-166.67,166.67s74.62,166.67,166.67,166.67,166.67-74.62,166.67-166.67S292.05,33.33,200,33.33Zm62.5,187.5h-41.67v41.67c0,11.51-9.33,20.83-20.83,20.83s-20.83-9.33-20.83-20.83v-41.67h-41.67c-11.51,0-20.83-9.33-20.83-20.83s9.33-20.83,20.83-20.83h41.67v-41.67c0-11.51,9.33-20.83,20.83-20.83s20.83,9.33,20.83,20.83v41.67h41.67c11.51,0,20.83,9.33,20.83,20.83s-9.33,20.83-20.83,20.83Z"/></svg>