<?xml version="1.0" encoding="UTF-8"?><svg id="Dice_Two" xmlns="http://www.w3.org/2000/svg" viewBox="0 0 400 400"><defs><style>.cls-1{fill:#fff;}</style></defs><path class="cls-1" d="m315.5,64.5H84.5c-11.05,0-20,8.95-20,20v231c0,11.05,8.95,20,20,20h231c11.05,0,20-8.95,20-20V84.5c0-11.05-8.95-20-20-20Zm-152.85,75.27c-.7,14.24-11.48,23.69-25.97,22.76-14.13-.9-24.19-12.11-23.19-25.84.97-13.37,13.01-24.04,26.29-23.3,13.4.75,23.55,12.46,22.86,26.38Zm100.7,146.74c-13.6,1.05-24.93-9.09-25.88-23.16-.98-14.48,8.44-25.28,22.67-26.01,13.9-.71,25.68,9.44,26.46,22.79.77,13.19-9.94,25.35-23.25,26.38Z"/></svg>