<?xml version="1.0" encoding="UTF-8"?><svg id="Dice_Five" xmlns="http://www.w3.org/2000/svg" viewBox="0 0 400 400"><defs><style>.cls-1{fill:#fff;}</style></defs><path class="cls-1" d="m315.5,64.5H84.5c-11.05,0-20,8.95-20,20v231c0,11.05,8.95,20,20,20h231c11.05,0,20-8.95,20-20V84.5c0-11.05-8.95-20-20-20Zm-178.03,48.88c13.8-.51,24.56,9.84,25.02,24.06.47,14.6-9.13,24.8-23.63,25.1-14.1.29-25.21-10.02-25.51-23.68-.3-13.46,10.6-24.97,24.13-25.48Zm1.41,173.12c-13.43.3-24.98-10.64-25.48-24.13-.51-13.79,9.83-24.56,24.05-25.03,14.6-.48,24.81,9.13,25.1,23.62.28,14.07-10.06,25.24-23.67,25.54Zm85.56-84.68c-1.03,13.95-12.34,23.63-26.43,22.6-13.95-1.02-23.61-12.33-22.58-26.43,1.02-13.98,12.31-23.62,26.41-22.58,13.98,1.04,23.63,12.32,22.59,26.41Zm38.78,84.6c-13.61,1.01-24.9-9.13-25.83-23.23-.95-14.46,8.51-25.24,22.75-25.94,13.91-.68,25.63,9.47,26.38,22.85.74,13.17-10.02,25.33-23.31,26.32Zm23.31-146.67c-.78,13.35-12.56,23.52-26.45,22.82-14.22-.72-23.64-11.51-22.71-26.02.9-14.08,12.19-24.18,25.87-23.14,13.36,1.01,24.06,13.11,23.29,26.34Z"/></svg>